<?xml version="1.0" encoding="UTF-8"?>
<svg id="BACKGROUND" xmlns="http://www.w3.org/2000/svg" xmlns:xlink="http://www.w3.org/1999/xlink" viewBox="0 0 3000 4439.48">
  <defs>
    <style>
      .cls-1 {
        fill: #3f3f3f;
      }

      .cls-2 {
        fill: #c9c9c9;
      }

      .cls-3 {
        fill: #1c1c1c;
      }

      .cls-4 {
        fill: #e0e0e0;
      }

      .cls-5 {
        fill: #2b2b2b;
      }

      .cls-6 {
        fill: #d829c4;
      }

      .cls-7 {
        clip-path: url(#clippath);
      }

      .cls-8 {
        fill: #adadad;
      }

      .cls-9 {
        fill: none;
      }

      .cls-10 {
        fill: #bf24ad;
      }

      .cls-11 {
        fill: #525252;
      }

      .cls-12 {
        fill: #a51f96;
      }
    </style>
    <clipPath id="clippath">
      <rect class="cls-9" width="3000" height="4439.48"/>
    </clipPath>
  </defs>
  <g class="cls-7">
    <rect class="cls-3" x="-38.68" y="-48.56" width="3110.4" height="4544.64"/>
    <polygon class="cls-2" points="-38.68 2704.58 -38.68 2739.28 300.38 2739.28 2181.02 1788.88 3053.66 1103.44 -38.68 2704.58"/>
    <polygon class="cls-1" points="-38.68 3835.14 -38.68 4491.77 1152.86 3485.2 3053.66 1245.19 -38.68 3835.14"/>
    <polygon class="cls-1" points="1586.82 1491.98 3060.58 -48.56 3002.91 -48.56 -38.68 2365.36 -38.68 2576.01 3071.72 980.75 3071.72 929.97 2252.43 1106.44 1586.82 1491.98"/>
    <polygon class="cls-10" points="3071.72 785.14 2786.69 680.12 3071.72 146.73 3071.72 79.87 2217.02 1000.48 3071.72 832.68 3071.72 785.14"/>
    <polygon class="cls-1" points="918 -48.56 -38.68 1113.91 -38.68 1225.32 1796.18 -28.16 1257.79 559.07 720.86 1549.84 2336.54 202 2370.85 -48.56 918 -48.56"/>
    <polygon class="cls-2" points="2461.5 -48.56 2409.98 232.24 1844.06 759.28 2888.64 -48.56 2461.5 -48.56"/>
    <polygon class="cls-8" points="2706.58 -48.56 2656.22 -24.8 2437.7 247.42 2343.76 334.9 2839.6 -48.56 2706.58 -48.56"/>
    <polygon class="cls-10" points="1152.86 544.72 -38.68 1414.15 -38.68 1447.24 544.46 1184.08 -38.68 2137.75 -38.68 2296.8 669.02 1679.44 465.55 1721.66 1152.86 544.72"/>
    <polygon class="cls-2" points="-38.68 1583.99 -38.68 1649.41 42.62 1649.41 -38.68 1821.28 -38.68 1896.25 319.1 1377.04 -38.68 1583.99"/>
    <polygon class="cls-4" points="218.81 1469.7 -38.68 1618.65 -38.68 1619.41 90 1619.41 33.83 1738.14 218.81 1469.7"/>
    <polygon class="cls-10" points="680.67 -48.56 267.26 259.81 -38.68 937.11 -38.68 980.04 784.02 -48.56 680.67 -48.56"/>
    <polygon class="cls-12" points="739.86 -48.56 360.14 327.28 42.24 830.84 745.6 -48.56 739.86 -48.56"/>
    <polygon class="cls-2" points="-38.68 -48.56 -38.68 684.65 167.9 207.76 529.27 -48.56 -38.68 -48.56"/>
    <polygon class="cls-10" points="3071.72 1475.87 1513.93 3321.04 2755.57 2264.76 3071.72 3300.1 3071.72 1475.87"/>
    <polygon class="cls-10" points="3071.72 4496.08 3071.72 4306 2591.52 4046.8 1973.68 4496.08 3071.72 4496.08"/>
    <polygon class="cls-2" points="161.51 4496.08 1236.38 3560.08 67.9 4496.08 161.51 4496.08"/>
    <polygon class="cls-10" points="-38.68 2959.31 225.5 3084.88 -38.68 3567.2 -38.68 3651.94 2166.62 1881.04 352.22 2889.04 -38.68 2870.25 -38.68 2959.31"/>
    <polygon class="cls-1" points="1223.88 4496.08 2342.26 3718.48 1324.69 4496.08 1620.95 4496.08 2528.85 3779.01 3071.72 4109.37 3071.72 3991.03 2663.53 2591.18 258.72 4496.08 1223.88 4496.08"/>
    <polygon class="cls-8" points="425.83 -48.56 42.24 115.6 -38.68 509.08 -38.68 609.17 143.7 188.14 477.41 -48.56 425.83 -48.56"/>
    <polygon class="cls-4" points="-38.68 -48.56 -38.68 191.74 -11.38 44.32 269.12 -48.56 -38.68 -48.56"/>
    <polygon class="cls-5" points="2251.18 -48.56 2143.58 106.96 826.32 1422.79 2308.39 186.41 2340.57 -48.56 2251.18 -48.56"/>
    <polygon class="cls-11" points="1844.06 -36 1282.4 576.62 823.83 1422.79 1401.21 608.47 1844.06 -36"/>
    <polygon class="cls-5" points="1729.6 -48.56 1193.18 179.41 -38.68 1182.13 -38.68 1188.99 1772.86 -48.56 1729.6 -48.56"/>
    <polygon class="cls-11" points="956.86 -48.56 -38.68 1161.12 -38.68 1168.78 891.99 174.15 1006.38 -48.56 956.86 -48.56"/>
    <polygon class="cls-12" points="1054.53 653.6 94.09 1354.41 846.46 906.18 733.41 1012.72 262.94 1834.96 -38.68 2223.38 -38.68 2256.99 563.06 1732.06 405.66 1764.73 1054.53 653.6"/>
    <polygon class="cls-5" points="-38.68 2542.29 3007.76 979.84 2453.01 1152.4 1252.22 1759.52 -38.68 2541.16 -38.68 2542.29"/>
    <polygon class="cls-11" points="1577.83 1457.98 2917.83 57.26 -38.68 2403.66 -38.68 2405.99 2053.26 847.88 1949.9 947.86 1577.83 1457.98"/>
    <polygon class="cls-11" points="1612.67 1511.68 2263.37 1134.77 3005.72 974.87 2280.38 1176.26 1612.67 1511.68"/>
    <polygon class="cls-6" points="3020.24 179.41 2301.79 953.26 3045.16 807.32 2468.21 880.62 2407.23 914.48 3020.24 179.41"/>
    <polygon class="cls-12" points="3045.16 807.32 2744 696.36 3020.24 179.41 2636.06 740.56 3045.16 807.32"/>
    <polygon class="cls-8" points="2784.96 1276.34 2164.83 1763.44 293.23 2709.28 23.66 2709.28 293.18 2642.38 2142.14 1672.96 2784.96 1276.34"/>
    <polygon class="cls-4" points="22.3 2706.78 2784.96 1276.34 288.86 2615.44 22.3 2706.78"/>
    <polygon class="cls-12" points="-22.86 3600.76 1864.56 2085.13 414.14 3018.64 687.03 2985.22 600.38 3016.56 -22.86 3600.76"/>
    <polygon class="cls-6" points="359.32 2919.41 -38.68 2900.29 -38.68 2908.24 368.78 2981.49 1861.73 2084.74 359.32 2919.41"/>
    <polygon class="cls-6" points="332.06 3057.52 -38.68 2919.82 -38.68 2926.09 267.08 3071.42 -22.86 3600.76 332.06 3057.52"/>
    <polygon class="cls-5" points="997.34 3334 -38.68 4419.26 -38.68 4452.5 1131.6 3463.89 2802.87 1494.37 997.34 3334"/>
    <polygon class="cls-11" points="-38.68 3874.28 -38.68 3884.24 392.54 3631.94 2802.87 1494.37 -38.68 3874.28"/>
    <polygon class="cls-12" points="3071.72 2986.44 2917.83 1967.44 2504.99 2331.58 2669.78 2143.57 3071.72 1526.83 3071.72 1522.38 1771.27 3062.73 2770.92 2212.31 3071.72 3197.38 3071.72 2986.44"/>
    <polygon class="cls-11" points="329.6 4496.08 2547.03 2958.68 2522.86 2826.25 3063.23 4069.08 2647.21 2642.38 307.04 4496.08 329.6 4496.08"/>
    <polygon class="cls-5" points="1572.55 4496.08 2526.63 3742.54 3063.23 4069.08 2528.85 3649.36 1435.1 4496.08 1572.55 4496.08"/>
    <polygon class="cls-5" points="1171.33 4496.08 2325.14 3693.84 631.45 4496.08 1171.33 4496.08"/>
    <polygon class="cls-6" points="2062.68 4496.08 2607.26 4202.32 3071.72 4363.64 3071.72 4340.1 2593.89 4082.17 2024.69 4496.08 2062.68 4496.08"/>
    <polygon class="cls-12" points="3071.72 4496.08 3071.72 4447.62 2627.42 4291.6 2227.75 4496.08 3071.72 4496.08"/>
    <polygon class="cls-5" points="872.06 4353.52 2191.82 3735.76 1458.14 4046.8 872.06 4353.52"/>
    <polygon class="cls-5" points="1763.42 4231.12 2528.85 3631.94 2853.5 3886.96 2530.94 3611.92 1763.42 4231.12"/>
    <polygon class="cls-5" points="110.01 4227.16 2109.74 2153.56 128.75 4150.44 110.01 4227.16"/>
    <polygon class="cls-11" points="58.56 3845.92 411.98 3649.36 2098.94 2143.84 433.58 3681.76 58.56 3845.92"/>
    <polygon class="cls-12" points="2970.14 1709.68 2692.22 2143.84 2929.82 1926.76 2987.42 2328.88 2939.9 1892.56 2755.24 2069.62 2970.14 1709.68"/>
    <polygon class="cls-12" points="58.56 3502.48 575.42 3018.64 433.58 3033.04 530.06 3039.88 58.56 3502.48"/>
    <polygon class="cls-5" points="89.41 2441.56 1232.78 1738.14 2301.79 1224.78 1220.54 1717.6 89.41 2441.56"/>
    <polygon class="cls-11" points="83.66 2338.24 1938.62 945.52 1602.14 1400.08 1887.02 998.32 83.66 2338.24"/>
    <polygon class="cls-6" points="2838.45 416.56 2475.5 864.4 2864.3 815.44 2514.38 839.92 2838.45 416.56"/>
    <polygon class="cls-12" points="2730.38 589 2624.18 744.52 2855.3 782.32 2609.95 750.04 2730.38 589"/>
    <polygon class="cls-12" points="69.98 2050.96 241.34 1824.88 709.34 1012.72 327.74 1245.19 663.69 1060.43 225.5 1816.24 69.98 2050.96"/>
    <polygon class="cls-5" points="1088.62 1145.2 2129.18 89.68 2185.34 5.44 2114.06 81.04 1088.62 1145.2"/>
    <polygon class="cls-11" points="1826.78 14.08 1054.53 1128.64 1821.02 45.04 1826.78 14.08"/>
    <polygon class="cls-5" points="1524.38 22 1184.54 157.36 146.3 1012.72 1177.34 144.4 1524.38 22"/>
    <polygon class="cls-11" points="985.24 14.08 912.38 177.52 146.3 992.56 928.51 185.3 985.24 14.08"/>
    <polygon class="cls-6" points="730.84 -48.56 291.41 279.22 42.24 830.84 314.78 304.96 734.99 -48.56 730.84 -48.56"/>
    <polygon class="cls-4" points="2492 -48.56 2440.7 231.02 2539.58 0 2535.35 -48.56 2492 -48.56"/>
    <polygon class="cls-11" points="593.42 4338.4 2562.26 2976.52 2947.82 3852.4 2553.98 3011.44 593.42 4338.4"/>
  </g>
</svg>